<svg xmlns="http://www.w3.org/2000/svg" viewBox="0 0 128 128" width="128" height="128">
  <defs>
    <linearGradient id="bgGrad" x1="0%" y1="0%" x2="100%" y2="100%">
      <stop offset="0%" stop-color="#4f46e5" />
      <stop offset="50%" stop-color="#7c3aed" />
      <stop offset="100%" stop-color="#ec4899" />
    </linearGradient>
    <filter id="shadow" x="-20%" y="-20%" width="140%" height="140%">
      <feDropShadow dx="0" dy="4" stdDeviation="6" flood-color="#000" flood-opacity="0.3"/>
    </filter>
  </defs>
  <rect width="128" height="128" rx="28" fill="url(#bgGrad)" />
  <g filter="url(#shadow)" fill="#ffffff">
    <!-- Book open icon -->
    <path d="M64 42 C56 34 42 34 26 36 L26 92 C42 90 56 90 64 98 C72 90 86 90 102 92 L102 36 C86 34 72 34 64 42 Z" opacity="0.95"/>
    <path d="M64 45 L64 97" stroke="#4f46e5" stroke-width="3" stroke-linecap="round" />
    <!-- Download Arrow in center -->
    <circle cx="64" cy="68" r="18" fill="#4f46e5" />
    <path d="M64 58 L64 74 M57 69 L64 76 L71 69" stroke="#ffffff" stroke-width="3.2" stroke-linecap="round" stroke-linejoin="round" />
  </g>
</svg>
